<svg width="86" height="86" viewBox="0 0 86 86" fill="none" xmlns="http://www.w3.org/2000/svg">
<path d="M43.5255 38.4669C43.4631 38.3872 43.3834 38.3227 43.2923 38.2783C43.2013 38.234 43.1014 38.2109 43.0001 38.2109C42.8988 38.2109 42.7989 38.234 42.7079 38.2783C42.6168 38.3227 42.5371 38.3872 42.4747 38.4669L33.1336 50.285C33.0566 50.3834 33.0088 50.5014 32.9957 50.6256C32.9826 50.7498 33.0048 50.8752 33.0596 50.9874C33.1144 51.0997 33.1997 51.1942 33.3057 51.2603C33.4117 51.3263 33.5341 51.3612 33.659 51.3609H39.8225V71.5776C39.8225 71.9446 40.1227 72.2448 40.4897 72.2448H45.4938C45.8608 72.2448 46.161 71.9446 46.161 71.5776V51.3693H52.3411C52.8999 51.3693 53.2085 50.7271 52.8666 50.2934L43.5255 38.4669Z" fill="black"/>
<path d="M67.9707 30.769C64.1509 20.694 54.4178 13.5298 43.0167 13.5298C31.6157 13.5298 21.8826 20.6857 18.0628 30.7607C10.9152 32.6372 5.63586 39.1509 5.63586 46.8907C5.63586 56.1066 13.1004 63.5711 22.308 63.5711H25.6524C26.0194 63.5711 26.3196 63.2709 26.3196 62.9039V57.8998C26.3196 57.5328 26.0194 57.2326 25.6524 57.2326H22.308C19.4973 57.2326 16.8535 56.115 14.8852 54.0883C12.9252 52.07 11.8827 49.351 11.9744 46.532C12.0495 44.3302 12.8001 42.2619 14.1596 40.5187C15.5524 38.7423 17.504 37.4495 19.6725 36.8741L22.8334 36.0484L23.9927 32.9959C24.71 31.0943 25.7108 29.3178 26.9702 27.7082C28.2134 26.1127 29.6862 24.7103 31.3404 23.5464C34.7683 21.1361 38.8049 19.86 43.0167 19.86C47.2286 19.86 51.2652 21.1361 54.6931 23.5464C56.3528 24.714 57.8206 26.1152 59.0633 27.7082C60.3227 29.3178 61.3235 31.1026 62.0408 32.9959L63.1917 36.04L66.3443 36.8741C70.8648 38.0917 74.0257 42.2035 74.0257 46.8907C74.0257 49.6513 72.9498 52.2534 70.9982 54.2051C70.0411 55.1677 68.9025 55.931 67.6485 56.4507C66.3944 56.9704 65.0496 57.2361 63.6922 57.2326H60.3477C59.9808 57.2326 59.6805 57.5328 59.6805 57.8998V62.9039C59.6805 63.2709 59.9808 63.5711 60.3477 63.5711H63.6922C72.8998 63.5711 80.3643 56.1066 80.3643 46.8907C80.3643 39.1593 75.1016 32.6539 67.9707 30.769Z" fill="black"/>
</svg>
