<svg width="103" height="112" viewBox="0 0 103 112" fill="none" xmlns="http://www.w3.org/2000/svg">
<ellipse cx="51.3228" cy="36.1804" rx="51.2856" ry="35.8591" fill="url(#paint0_linear_500_2666)"/>
<path d="M57.2295 25.8103C57.2295 21.1645 50.2089 17.397 50.2089 17.397C50.2089 17.397 43.1883 21.1646 43.1883 25.8103C43.1883 30.4559 46.3334 32.6941 50.2089 32.6941C54.0843 32.6941 57.2295 30.456 57.2295 25.8103Z" fill="#4BA26A"/>
<path d="M43.9616 39.3166C46.4071 37.7197 46.2291 35.0135 41.7453 32.0841C37.2662 29.1516 29.2015 29.6702 29.2015 29.6702C29.2015 29.6702 28.4035 34.9401 32.8873 37.8697C37.3806 40.8007 41.52 40.9155 43.9608 39.3169L43.9616 39.3166Z" fill="#4BA26A"/>
<path d="M34.5089 51.7417C41.4941 53.5208 46.0206 52.2892 47.4508 49.7117C48.8878 47.1356 46.6927 44.1877 39.7023 42.4089C32.724 40.627 24.4676 43.8518 24.4676 43.8518C24.4676 43.8518 27.5286 49.9629 34.5091 51.7419L34.5089 51.7417Z" fill="#4BA26A"/>
<path d="M47.8688 35.7543V43.4031C47.8688 44.249 48.9149 44.9328 50.2089 44.9328C51.5029 44.9328 52.5489 44.249 52.5489 43.4031V35.7543C52.5489 34.9084 51.5029 34.2246 50.2089 34.2246C48.9149 34.2246 47.8688 34.9084 47.8688 35.7543Z" fill="#4BA26A"/>
<path d="M59.3495 40.2711C61.5164 39.1223 64.1726 38.3588 67.0839 38.1294C67.2335 38.0362 67.3765 37.9688 67.5285 37.871C72.0124 34.9415 71.2167 29.6714 71.2167 29.6714C71.2167 29.6714 63.1571 29.1513 58.6759 32.0838C54.192 35.0133 54.0188 37.7209 56.462 39.3164C57.2553 39.8365 58.2453 40.1515 59.3498 40.2709L59.3495 40.2711Z" fill="#4BA26A"/>
<path d="M71.2708 41.8721H66.5906V46.4613H59.5701V49.5208H66.5906V54.11H71.2708V49.5208H78.2914V46.4613H71.2708V41.8721Z" fill="#4BA26A"/>
<defs>
<linearGradient id="paint0_linear_500_2666" x1="91.0692" y1="0.321291" x2="70.2484" y2="77.1673" gradientUnits="userSpaceOnUse">
<stop stop-color="#D3FFE7"/>
<stop offset="1" stop-color="#EFFFF6"/>
</linearGradient>
</defs>
</svg>
