<svg width="731" height="168" viewBox="0 0 731 168" fill="none" xmlns="http://www.w3.org/2000/svg">
<mask id="mask0_500_2982" style="mask-type:alpha" maskUnits="userSpaceOnUse" x="0" y="0" width="731" height="168">
<path d="M46.7846 78.2073C26.2522 65.5847 10.5136 70.9935 0.647949 78.2073V167.319H731V0.552734C684.863 0.552734 684.161 31.3813 624.799 15.1925C491.497 -21.16 432.93 123.342 311.418 44.4722C248.497 3.63272 225.604 111.88 152.986 78.2073C119.78 62.8101 102.695 112.579 46.7846 78.2073Z" fill="url(#paint0_linear_500_2982)"/>
</mask>
<g mask="url(#mask0_500_2982)">
<path d="M46.7846 78.2073C26.2522 65.5847 10.5136 70.9935 0.647949 78.2073V167.319H731V0.552734C684.863 0.552734 684.161 31.3813 624.799 15.1925C491.497 -21.16 432.93 123.342 311.418 44.4722C248.497 3.63272 225.604 111.88 152.986 78.2073C119.78 62.8101 102.695 112.579 46.7846 78.2073Z" fill="url(#paint1_linear_500_2982)"/>
</g>
<defs>
<linearGradient id="paint0_linear_500_2982" x1="0.647946" y1="118.944" x2="720.915" y2="-12.194" gradientUnits="userSpaceOnUse">
<stop offset="0.00860117" stop-color="#95A4FC" stop-opacity="0"/>
<stop offset="0.178635" stop-color="#95A4FC"/>
<stop offset="0.63031" stop-color="#95A4FC"/>
<stop offset="1" stop-color="#95A4FC" stop-opacity="0"/>
</linearGradient>
<linearGradient id="paint1_linear_500_2982" x1="357.39" y1="0.552735" x2="362.685" y2="105.142" gradientUnits="userSpaceOnUse">
<stop stop-color="#BAEDBD" stop-opacity="0.729412"/>
<stop offset="1" stop-color="#4BA26A" stop-opacity="0"/>
</linearGradient>
</defs>
</svg>
