<svg width="84" height="258" viewBox="0 0 84 258" fill="none" xmlns="http://www.w3.org/2000/svg">
<circle cx="42" cy="42" r="42" fill="url(#paint0_linear_500_2950)"/>
<path d="M45.6517 35.1041C45.6517 31.1813 41.8691 28 41.8691 28C41.8691 28 38.0864 31.1814 38.0864 35.1041C38.0864 39.0268 39.781 40.9167 41.8691 40.9167C43.9572 40.9167 45.6517 39.0269 45.6517 35.1041Z" fill="#4BA26A"/>
<path d="M38.5033 46.5088C39.8209 45.1603 39.725 42.8752 37.3092 40.4017C34.8958 37.9255 30.5506 38.3634 30.5506 38.3634C30.5506 38.3634 30.1206 42.8132 32.5365 45.287C34.9575 47.7619 37.1878 47.8588 38.5029 46.509L38.5033 46.5088Z" fill="#4BA26A"/>
<path d="M33.4102 57.0003C37.1738 58.5026 39.6127 57.4627 40.3832 55.2862C41.1575 53.111 39.9748 50.6218 36.2084 49.1198C32.4485 47.6152 28 50.3381 28 50.3381C28 50.3381 29.6492 55.4984 33.4103 57.0005L33.4102 57.0003Z" fill="#4BA26A"/>
<path d="M40.6084 43.5006V49.9592C40.6084 50.6735 41.172 51.2508 41.8692 51.2508C42.5664 51.2508 43.13 50.6735 43.13 49.9592V43.5006C43.13 42.7864 42.5664 42.209 41.8692 42.209C41.172 42.209 40.6084 42.7864 40.6084 43.5006Z" fill="#4BA26A"/>
<path d="M46.7942 47.3148C47.9617 46.3448 49.3929 45.7002 50.9614 45.5064C51.0421 45.4277 51.1191 45.3708 51.201 45.2882C53.6169 42.8146 53.1881 38.3646 53.1881 38.3646C53.1881 38.3646 48.8457 37.9254 46.4312 40.4016C44.0154 42.8752 43.922 45.1615 45.2384 46.5087C45.6658 46.9479 46.1992 47.2139 46.7943 47.3147L46.7942 47.3148Z" fill="#4BA26A"/>
<path d="M53.2174 48.6665H50.6957V52.5416H46.9131V55.125H50.6957V59.0001H53.2174V55.125H57V52.5416H53.2174V48.6665Z" fill="#4BA26A"/>
<defs>
<linearGradient id="paint0_linear_500_2950" x1="74.55" y1="2.14197e-06" x2="42" y2="84" gradientUnits="userSpaceOnUse">
<stop stop-color="#D3FFE7"/>
<stop offset="1" stop-color="#EFFFF6"/>
</linearGradient>
</defs>
</svg>
