<svg width="40" height="37" viewBox="0 0 40 37" fill="none" xmlns="http://www.w3.org/2000/svg">
<ellipse cx="20" cy="18.2647" rx="20" ry="18.2647" fill="white"/>
<path d="M22.0608 12.6587C22.0608 10.0393 19.3754 7.91504 19.3754 7.91504C19.3754 7.91504 16.6901 10.0394 16.6901 12.6587C16.6901 15.278 17.8931 16.54 19.3754 16.54C20.8578 16.54 22.0608 15.2781 22.0608 12.6587Z" fill="#4BA26A"/>
<path d="M16.9858 20.2739C17.9212 19.3734 17.8532 17.8476 16.1381 16.1959C14.4248 14.5425 11.3401 14.8349 11.3401 14.8349C11.3401 14.8349 11.0349 17.8062 12.7499 19.4581C14.4686 21.1106 16.0519 21.1753 16.9855 20.274L16.9858 20.2739Z" fill="#4BA26A"/>
<path d="M13.3702 27.2791C16.042 28.2822 17.7734 27.5879 18.3205 26.1345C18.8701 24.6821 18.0305 23.02 15.3567 22.0171C12.6875 21.0124 9.52942 22.8306 9.52942 22.8306C9.52942 22.8306 10.7002 26.2762 13.3703 27.2793L13.3702 27.2791Z" fill="#4BA26A"/>
<path d="M18.4803 18.2653V22.5779C18.4803 23.0549 18.8805 23.4404 19.3754 23.4404C19.8704 23.4404 20.2705 23.0549 20.2705 22.5779V18.2653C20.2705 17.7884 19.8704 17.4028 19.3754 17.4028C18.8805 17.4028 18.4803 17.7884 18.4803 18.2653Z" fill="#4BA26A"/>
<path d="M22.8717 20.8119C23.7005 20.1642 24.7165 19.7338 25.8301 19.6044C25.8873 19.5518 25.942 19.5138 26.0002 19.4587C27.7152 17.807 27.4109 14.8355 27.4109 14.8355C27.4109 14.8355 24.3281 14.5423 22.614 16.1957C20.899 17.8474 20.8327 19.3741 21.7672 20.2736C22.0707 20.5669 22.4493 20.7445 22.8718 20.8118L22.8717 20.8119Z" fill="#4BA26A"/>
<path d="M27.4316 21.7144H25.6414V24.3019H22.9561V26.0269H25.6414V28.6145H27.4316V26.0269H30.1169V24.3019H27.4316V21.7144Z" fill="#4BA26A"/>
</svg>
