<svg width="25" height="25" viewBox="0 0 25 25" fill="none" xmlns="http://www.w3.org/2000/svg">
<g clip-path="url(#clip0_500_5772)">
<path d="M18.0679 0.979394C16.7067 1.07127 15.2498 1.88127 14.3479 2.97439C13.5586 3.93627 12.8967 5.34814 13.1479 6.81439C12.9229 6.74502 12.7186 6.73752 12.4729 6.64939C11.8036 6.41127 11.0386 6.15439 10.0879 6.15439C8.19982 6.15439 6.2667 7.27752 5.04795 9.15439C3.2742 11.8806 3.63045 16.6788 6.32295 20.7794C6.79732 21.4994 7.35045 22.285 8.03295 22.9094C8.71545 23.5338 9.54045 24.01 10.5079 24.0194C11.3348 24.0288 11.9104 23.7531 12.4279 23.5244C12.9454 23.2956 13.4273 23.0931 14.3329 23.0894C14.3386 23.0894 14.3423 23.0894 14.3479 23.0894C15.2498 23.0819 15.7167 23.2806 16.2229 23.5094C16.7292 23.7381 17.2992 24.0269 18.1279 24.0194C19.1142 24.0119 19.9523 23.4719 20.6479 22.8044C21.3436 22.1369 21.9154 21.3175 22.3879 20.5994C23.0648 19.5681 23.3367 19.0056 23.8579 17.8544C23.9123 17.7344 23.9142 17.5956 23.8617 17.4738C23.8111 17.3519 23.7117 17.2563 23.5879 17.2094C21.8817 16.5644 20.9086 15.055 20.7679 13.4594C20.6273 11.8638 21.3023 10.2213 23.0029 9.28939C23.1286 9.22189 23.2167 9.10377 23.2467 8.96502C23.2748 8.82627 23.2411 8.68002 23.1529 8.56939C21.9323 7.05252 20.2148 6.15439 18.5329 6.15439C17.4604 6.15439 16.6729 6.40752 16.0279 6.64939C15.9211 6.69064 15.8423 6.68689 15.7429 6.72439C16.3973 6.37939 16.9748 5.90127 17.4079 5.34439C18.1954 4.33377 18.8029 2.89564 18.5779 1.38439C18.5404 1.13689 18.3173 0.960644 18.0679 0.979394ZM17.5579 2.11939C17.5261 3.08877 17.1942 4.03752 16.6429 4.74439C16.0654 5.48689 15.0942 6.00064 14.1529 6.15439C14.1698 5.22252 14.5373 4.25689 15.0979 3.57439C15.6867 2.86189 16.6617 2.34814 17.5579 2.11939ZM10.0879 7.11439C10.5079 7.11439 11.4829 7.31502 12.1429 7.54939C12.8029 7.78377 13.4986 8.05939 14.3179 8.05939C15.1186 8.05939 15.7523 7.78189 16.3729 7.54939C16.9936 7.31689 17.6123 7.11439 18.5329 7.11439C19.7348 7.11439 21.0342 7.73877 22.0579 8.82439C20.4192 9.98127 19.6523 11.785 19.8079 13.5344C19.9636 15.3025 21.0286 16.9806 22.7779 17.8544C22.7754 17.8599 22.7729 17.8653 22.7704 17.8707C22.3959 18.6866 22.1461 19.2306 21.5929 20.0744C21.1336 20.7738 20.5879 21.5388 19.9879 22.1144C19.3879 22.69 18.7523 23.0538 18.1129 23.0594C17.4961 23.065 17.1454 22.8813 16.6129 22.6394C16.0804 22.3975 15.3923 22.12 14.3329 22.1294C13.2754 22.135 12.5779 22.4013 12.0379 22.6394C11.4979 22.8775 11.1436 23.065 10.5229 23.0594C9.8667 23.0538 9.25732 22.735 8.67795 22.2044C8.09857 21.6738 7.57545 20.95 7.11795 20.2544C4.59795 16.4144 4.39545 11.9031 5.84295 9.67939C6.9042 8.04627 9.66795 7.11439 10.0879 7.11439Z" fill="black"/>
<path d="M10.0879 7.11439C10.5079 7.11439 11.4829 7.31502 12.1429 7.54939C12.8029 7.78377 13.4986 8.05939 14.3179 8.05939C15.1186 8.05939 15.7523 7.78189 16.3729 7.54939C16.9936 7.31689 17.6123 7.11439 18.5329 7.11439C19.7348 7.11439 21.0342 7.73877 22.0579 8.82439C20.4192 9.98127 19.6523 11.785 19.8079 13.5344C19.9636 15.3025 21.0286 16.9806 22.7779 17.8544L22.7704 17.8707C22.3959 18.6866 22.1461 19.2306 21.5929 20.0744C21.1336 20.7738 20.5879 21.5388 19.9879 22.1144C19.3879 22.69 18.7523 23.0538 18.1129 23.0594C17.4961 23.065 17.1454 22.8813 16.6129 22.6394C16.0804 22.3975 15.3923 22.12 14.3329 22.1294C13.2754 22.135 12.5779 22.4013 12.0379 22.6394C11.4979 22.8775 11.1436 23.065 10.5229 23.0594C9.8667 23.0538 9.25732 22.735 8.67795 22.2044C8.09857 21.6738 7.57545 20.95 7.11795 20.2544C4.59795 16.4144 4.39545 11.9031 5.84295 9.67939C6.9042 8.04627 9.66795 7.11439 10.0879 7.11439Z" fill="black"/>
<path d="M17.5579 2.11939C17.5261 3.08877 17.1942 4.03752 16.6429 4.74439C16.0654 5.48689 15.0942 6.00064 14.1529 6.15439C14.1698 5.22252 14.5373 4.25689 15.0979 3.57439C15.6867 2.86189 16.6617 2.34814 17.5579 2.11939Z" fill="black"/>
</g>
<defs>
<clipPath id="clip0_500_5772">
<rect width="24" height="24" fill="white" transform="translate(0.581543 0.979492)"/>
</clipPath>
</defs>
</svg>
