<svg width="25" height="25" viewBox="0 0 25 25" fill="none" xmlns="http://www.w3.org/2000/svg">
<path d="M21.887 11.021H21.0815V10.9795H12.0815V14.9795H17.733C16.9085 17.308 14.693 18.9795 12.0815 18.9795C8.76804 18.9795 6.08154 16.293 6.08154 12.9795C6.08154 9.66599 8.76804 6.97949 12.0815 6.97949C13.611 6.97949 15.0025 7.55649 16.062 8.49899L18.8905 5.67049C17.1045 4.00599 14.7155 2.97949 12.0815 2.97949C6.55904 2.97949 2.08154 7.45699 2.08154 12.9795C2.08154 18.502 6.55904 22.9795 12.0815 22.9795C17.604 22.9795 22.0815 18.502 22.0815 12.9795C22.0815 12.309 22.0125 11.6545 21.887 11.021Z" fill="#FFC107"/>
<path d="M3.23438 8.32499L6.51987 10.7345C7.40887 8.53349 9.56188 6.97949 12.0814 6.97949C13.6109 6.97949 15.0024 7.55649 16.0619 8.49899L18.8904 5.67049C17.1044 4.00599 14.7154 2.97949 12.0814 2.97949C8.24038 2.97949 4.90937 5.14799 3.23438 8.32499Z" fill="#FF3D00"/>
<path d="M12.0817 22.9793C14.6647 22.9793 17.0117 21.9908 18.7862 20.3833L15.6912 17.7643C14.6872 18.5248 13.4392 18.9793 12.0817 18.9793C9.4807 18.9793 7.2722 17.3208 6.4402 15.0063L3.1792 17.5188C4.8342 20.7573 8.1952 22.9793 12.0817 22.9793Z" fill="#4CAF50"/>
<path d="M21.887 11.021H21.0815V10.9795H12.0815V14.9795H17.733C17.337 16.098 16.6175 17.0625 15.6895 17.765L15.691 17.764L18.786 20.383C18.567 20.582 22.0815 17.9795 22.0815 12.9795C22.0815 12.309 22.0125 11.6545 21.887 11.021Z" fill="#1976D2"/>
</svg>
