<svg width="20" height="20" viewBox="0 0 20 20" fill="none" xmlns="http://www.w3.org/2000/svg">
<path d="M17.0752 6.26655C17.0704 6.24458 17.0704 6.22185 17.0752 6.19988C17.0711 6.18065 17.0711 6.16078 17.0752 6.14155V6.06655L17.0252 5.94155C17.0049 5.90744 16.9796 5.87655 16.9502 5.84988L16.8752 5.78322H16.8335L13.5502 3.70822L10.4502 1.79155C10.3785 1.73466 10.2964 1.69221 10.2085 1.66655H10.1418C10.0674 1.65412 9.99133 1.65412 9.91685 1.66655H9.83351C9.73671 1.68796 9.64391 1.72452 9.55851 1.77488L3.33351 5.64988L3.25851 5.70822L3.18351 5.77488L3.10018 5.83322L3.05851 5.88322L3.00851 6.00822V6.08322V6.13322C3.00042 6.18848 3.00042 6.24462 3.00851 6.29988V13.5749C3.00823 13.7165 3.04404 13.8559 3.11257 13.9798C3.1811 14.1037 3.28008 14.2082 3.40018 14.2832L9.65018 18.1499L9.77518 18.1999H9.84185C9.98283 18.2446 10.1342 18.2446 10.2752 18.1999H10.3418L10.4668 18.1499L16.6668 14.3416C16.7869 14.2665 16.8859 14.1621 16.9545 14.0381C17.023 13.9142 17.0588 13.7748 17.0585 13.6332V6.35822C17.0585 6.35822 17.0752 6.29988 17.0752 6.26655ZM10.0002 3.47488L11.4835 4.39155L6.82518 7.27488L5.33351 6.35822L10.0002 3.47488ZM9.16685 15.9749L4.58351 13.1749V7.84988L9.16685 10.6832V15.9749ZM10.0002 9.21655L8.40851 8.25822L13.0668 5.36655L14.6668 6.35822L10.0002 9.21655ZM15.4168 13.1499L10.8335 15.9999V10.6832L15.4168 7.84988V13.1499Z" fill="#71839B"/>
</svg>
