<svg width="20" height="20" viewBox="0 0 20 20" fill="none" xmlns="http://www.w3.org/2000/svg">
<path d="M15 1.6665H5C4.33696 1.6665 3.70107 1.9299 3.23223 2.39874C2.76339 2.86758 2.5 3.50346 2.5 4.1665V13.3332C2.5 13.9962 2.76339 14.6321 3.23223 15.1009C3.70107 15.5698 4.33696 15.8332 5 15.8332H7.15833L9.40833 18.0915C9.4862 18.1687 9.57855 18.2298 9.68008 18.2713C9.78161 18.3128 9.89033 18.3338 10 18.3332C10.1986 18.3332 10.3907 18.2623 10.5417 18.1332L13.225 15.8332H15C15.663 15.8332 16.2989 15.5698 16.7678 15.1009C17.2366 14.6321 17.5 13.9962 17.5 13.3332V4.1665C17.5 3.50346 17.2366 2.86758 16.7678 2.39874C16.2989 1.9299 15.663 1.6665 15 1.6665ZM15.8333 13.3332C15.8333 13.5542 15.7455 13.7661 15.5893 13.9224C15.433 14.0787 15.221 14.1665 15 14.1665H12.9167C12.718 14.1665 12.526 14.2374 12.375 14.3665L10.0417 16.3665L8.09167 14.4082C8.0138 14.3309 7.92145 14.2698 7.81992 14.2284C7.71839 14.1869 7.60967 14.1659 7.5 14.1665H5C4.77899 14.1665 4.56702 14.0787 4.41074 13.9224C4.25446 13.7661 4.16667 13.5542 4.16667 13.3332V4.1665C4.16667 3.94549 4.25446 3.73353 4.41074 3.57725C4.56702 3.42097 4.77899 3.33317 5 3.33317H15C15.221 3.33317 15.433 3.42097 15.5893 3.57725C15.7455 3.73353 15.8333 3.94549 15.8333 4.1665V13.3332Z" fill="#71839B"/>
</svg>
