<svg width="14" height="14" viewBox="0 0 14 14" fill="none" xmlns="http://www.w3.org/2000/svg">
<path fill-rule="evenodd" clip-rule="evenodd" d="M3.5 0.7C3.5 0.313401 3.1866 0 2.8 0C2.4134 0 2.1 0.313401 2.1 0.7H1.4C0.626801 0.7 0 1.3268 0 2.1V4.9V12.6C0 13.3732 0.6268 14 1.4 14H8.63333H9.33333L10.0333 13.2959L13.3041 10.0059L14 9.30588V8.60588V4.9V2.1C14 1.3268 13.3732 0.7 12.6 0.7H11.9C11.9 0.313401 11.5866 0 11.2 0C10.8134 0 10.5 0.313401 10.5 0.7H3.5ZM2.1 2.1C2.1 2.4866 2.4134 2.8 2.8 2.8C3.1866 2.8 3.5 2.4866 3.5 2.1H10.5C10.5 2.4866 10.8134 2.8 11.2 2.8C11.5866 2.8 11.9 2.4866 11.9 2.1H12.6V4.2H1.4V2.1H2.1ZM1.4 5.6V12.6H8.63333V10.7059C8.63333 9.54608 9.57353 8.60588 10.7333 8.60588H12.6V5.6H1.4ZM11.33 10.0059L10.0333 11.3102V10.7059C10.0333 10.3193 10.3467 10.0059 10.7333 10.0059H11.33Z" fill="#486581"/>
</svg>
