<svg width="12" height="16" viewBox="0 0 12 16" fill="none" xmlns="http://www.w3.org/2000/svg">
<path fill-rule="evenodd" clip-rule="evenodd" d="M8.55994 12C8.55994 14.2091 6.76908 16 4.55994 16C2.35081 16 0.559945 14.2091 0.559945 12L0.559946 5.44C0.559946 2.43557 2.99552 -7.38235e-07 5.99995 -4.7558e-07C9.00437 -2.12924e-07 11.4399 2.43557 11.4399 5.44L11.4399 12.48C11.4399 12.8335 11.1534 13.12 10.7999 13.12C10.4465 13.12 10.1599 12.8335 10.1599 12.48L10.1599 5.44C10.1599 3.14249 8.29745 1.28 5.99995 1.28C3.70244 1.28 1.83995 3.14249 1.83995 5.44L1.83995 12C1.83995 13.5022 3.05773 14.72 4.55994 14.72C6.06216 14.72 7.27994 13.5022 7.27994 12L7.27994 5.44C7.27994 4.73308 6.70687 4.16 5.99995 4.16C5.29302 4.16 4.71995 4.73308 4.71995 5.44L4.71995 12.48C4.71995 12.8335 4.43341 13.12 4.07995 13.12C3.72649 13.12 3.43995 12.8335 3.43995 12.48L3.43995 5.44C3.43995 4.02615 4.5861 2.88 5.99995 2.88C7.4138 2.88 8.55994 4.02615 8.55994 5.44L8.55994 12Z" fill="#486581"/>
</svg>
